# xmcd CD database file
#
# Track frame offsets:
#	183
#	24155
#	37430
#	53588
#	66705
#	80100
#	97075
#	114313
#	138495
#	159950
#	175425
#	189603
#	201370
#	213798
#	224108
#	238860
#	253613
#	274860
#	287865
#	302903
#	317423
#
# Disc length: 4470 seconds
#
# Revision: 3
# Processed by: cddbd v1.5.2PL0 Copyright (c) Steve Scherf et al.
# Submitted via: CDex 1.70beta2
#
DISCID=4d117415
DTITLE=Various Artist - 환상의 무드음악 모음집 2
DYEAR=1900
DGENRE=Folk/Pop
TTITLE0=Concerto de la Mer 바다의 협주곡
TTITLE1=Les Fleurs Sauvages 야생화
TTITLE2=Tornero 또르네로
TTITLE3=Gypsy Violin 집시 바이얼린
TTITLE4=Snow Frolic 눈장난
TTITLE5=The Poct and I 시인과 나
TTITLE6=Laura 로라
TTITLE7=Amapola 아마폴라
TTITLE8=Caravansary 대상의 행렬
TTITLE9=Dolanne's Melody 도란의 미소
TTITLE10=Annie's Song 애니의 노래
TTITLE11=Ann of 1,000 Days 천일의 앤
TTITLE12=Seasons in the Sun 태양의 계절
TTITLE13=Morning has Broken 모닝 헤즈 브로큰
TTITLE14=Merci Cherie 머시 세리
TTITLE15=When a Child is Born 나자리노
TTITLE16=Le Fusil Rouille 녹슨 총
TTITLE17=Ballade Pour Adeline 아드린느를 위한 발라드
TTITLE18=Che Vuole Questa Musica Stasera 유리로 된 방
TTITLE19=Midnight Blues 한밤의 블루스
TTITLE20=What a Wonderful World 놀라운 세상
EXTD=
EXTT0=
EXTT1=
EXTT2=
EXTT3=
EXTT4=
EXTT5=
EXTT6=
EXTT7=
EXTT8=
EXTT9=
EXTT10=
EXTT11=
EXTT12=
EXTT13=
EXTT14=
EXTT15=
EXTT16=
EXTT17=
EXTT18=
EXTT19=
EXTT20=
PLAYORDER=
